<!-- app/knowledge_vault/static/images/secure_icon.svg -->
<svg width="24" height="24" viewBox="0 0 24 24" xmlns="http://www.w3.org/2000/svg">
  <defs>
    <linearGradient id="secureGradient" x1="0%" y1="0%" x2="100%" y2="100%">
      <stop offset="0%" style="stop-color:#dc2626;stop-opacity:1" />
      <stop offset="100%" style="stop-color:#991b1b;stop-opacity:1" />
    </linearGradient>
  </defs>
  
  <!-- Shield outline -->
  <path d="M12,2 L4,6 L4,12 Q4,16 12,22 Q20,16 20,12 L20,6 L12,2 Z" 
        fill="url(#secureGradient)" stroke="rgba(0,0,0,0.1)" stroke-width="1"/>
  
  <!-- Shield inner -->
  <path d="M12,3.5 L5.5,7 L5.5,12 Q5.5,15.5 12,20.5 Q18.5,15.5 18.5,12 L18.5,7 L12,3.5 Z" 
        fill="rgba(255,255,255,0.1)"/>
  
  <!-- Lock symbol -->
  <g transform="translate(12,12)">
    <!-- Lock body -->
    <rect x="-3" y="-1" width="6" height="4" fill="rgba(255,255,255,0.9)" rx="1"/>
    
    <!-- Lock shackle -->
    <path d="M-2,-3 Q-2,-4.5 0,-4.5 Q2,-4.5 2,-3 L2,-1" 
          fill="none" stroke="rgba(255,255,255,0.9)" stroke-width="1.5" stroke-linecap="round"/>
    
    <!-- Keyhole -->
    <circle cx="0" cy="1" r="0.8" fill="url(#secureGradient)"/>
    <rect x="-0.3" y="1" width="0.6" height="1.5" fill="url(#secureGradient)" rx="0.3"/>
  </g>
  
  <!-- Security dots -->
  <circle cx="8" cy="8" r="0.8" fill="rgba(255,255,255,0.6)"/>
  <circle cx="16" cy="8" r="0.8" fill="rgba(255,255,255,0.6)"/>
  <circle cx="12" cy="16" r="0.8" fill="rgba(255,255,255,0.6)"/>
</svg>