<!-- File: FlaskVerseHub/app/static/images/logo.svg -->
<svg width="32" height="32" viewBox="0 0 32 32" fill="none" xmlns="http://www.w3.org/2000/svg">
  <defs>
    <linearGradient id="logoGradient" x1="0%" y1="0%" x2="100%" y2="100%">
      <stop offset="0%" style="stop-color:#007bff;stop-opacity:1" />
      <stop offset="100%" style="stop-color:#0056b3;stop-opacity:1" />
    </linearGradient>
  </defs>
  
  <!-- Flask icon base -->
  <path d="M16 2C16 2 12 6 12 12V20C12 24.4183 15.5817 28 20 28H12C7.58172 28 4 24.4183 4 20V12C4 6 8 2 8 2" fill="url(#logoGradient)"/>
  
  <!-- Hub connection nodes -->
  <circle cx="8" cy="8" r="2" fill="#28a745"/>
  <circle cx="24" cy="8" r="2" fill="#28a745"/>
  <circle cx="8" cy="24" r="2" fill="#28a745"/>
  <circle cx="24" cy="24" r="2" fill="#28a745"/>
  
  <!-- Connection lines -->
  <line x1="8" y1="8" x2="16" y2="16" stroke="#6c757d" stroke-width="1"/>
  <line x1="24" y1="8" x2="16" y2="16" stroke="#6c757d" stroke-width="1"/>
  <line x1="8" y1="24" x2="16" y2="16" stroke="#6c757d" stroke-width="1"/>
  <line x1="24" y1="24" x2="16" y2="16" stroke="#6c757d" stroke-width="1"/>
  
  <!-- Central hub -->
  <circle cx="16" cy="16" r="3" fill="#ffc107"/>
  
  <!-- Data flow indicators -->
  <path d="M20 12L22 10M22 10L20 8M22 10H18" stroke="#007bff" stroke-width="1.5" stroke-linecap="round" stroke-linejoin="round"/>
  <path d="M12 20L10 22M10 22L12 24M10 22H14" stroke="#007bff" stroke-width="1.5" stroke-linecap="round" stroke-linejoin="round"/>
</svg>