<!-- File: FlaskVerseHub/app/static/images/banners/dashboard_banner.svg -->
<svg width="800" height="200" viewBox="0 0 800 200" fill="none" xmlns="http://www.w3.org/2000/svg">
  <defs>
    <linearGradient id="dashboardGradient" x1="0%" y1="0%" x2="100%" y2="100%">
      <stop offset="0%" style="stop-color:#28a745;stop-opacity:0.9" />
      <stop offset="50%" style="stop-color:#20c997;stop-opacity:0.8" />
      <stop offset="100%" style="stop-color:#17a2b8;stop-opacity:0.7" />
    </linearGradient>
    <pattern id="dashboardGrid" patternUnits="userSpaceOnUse" width="50" height="50">
      <path d="M 50 0 L 0 0 0 50" fill="none" stroke="rgba(255,255,255,0.08)" stroke-width="1"/>
    </pattern>
  </defs>
  
  <!-- Background -->
  <rect width="800" height="200" fill="url(#dashboardGradient)"/>
  <rect width="800" height="200" fill="url(#dashboardGrid)"/>
  
  <!-- Chart representations -->
  <g transform="translate(100, 50)">
    <!-- Line chart -->
    <path d="M0 60 L20 45 L40 30 L60 40 L80 25 L100 35" stroke="rgba(255,255,255,0.8)" stroke-width="3" fill="none"/>
    <path d="M0 60 L20 45 L40 30 L60 40 L80 25 L100 35 L100 80 L0 80 Z" fill="rgba(255,255,255,0.2)"/>
    
    <!-- Data points -->
    <circle cx="0" cy="60" r="3" fill="#fff"/>
    <circle cx="20" cy="45" r="3" fill="#fff"/>
    <circle cx="40" cy="30" r="3" fill="#fff"/>
    <circle cx="60" cy="40" r="3" fill="#fff"/>
    <circle cx="80" cy="25" r="3" fill="#fff"/>
    <circle cx="100" cy="35" r="3" fill="#fff"/>
  </g>
  
  <!-- Bar chart -->
  <g transform="translate(300, 80)" fill="rgba(255,255,255,0.7)">
    <rect x="0" y="40" width="15" height="40" rx="2"/>
    <rect x="20" y="25" width="15" height="55" rx="2"/>
    <rect x="40" y="35" width="15" height="45" rx="2"/>
    <rect x="60" y="15" width="15" height="65" rx="2"/>
    <rect x="80" y="30" width="15" height="50" rx="2"/>
  </g>
  
  <!-- Pie chart -->
  <g transform="translate(500, 100)">
    <circle cx="0" cy="0" r="40" fill="none" stroke="rgba(255,255,255,0.3)" stroke-width="6"/>
    <circle cx="0" cy="0" r="40" fill="none" stroke="rgba(255,255,255,0.9)" stroke-width="6" 
            stroke-dasharray="75 251" stroke-dashoffset="0"/>
    <circle cx="0" cy="0" r="40" fill="none" stroke="rgba(255,193,7,0.8)" stroke-width="6" 
            stroke-dasharray="63 251" stroke-dashoffset="-75"/>
    <circle cx="0" cy="0" r="40" fill="none" stroke="rgba(220,53,69,0.8)" stroke-width="6" 
            stroke-dasharray="50 251" stroke-dashoffset="-138"/>
  </g>
  
  <!-- Analytics cards -->
  <g transform="translate(650, 60)">
    <!-- Card 1 -->
    <rect x="0" y="0" width="80" height="50" rx="8" fill="rgba(255,255,255,0.2)"/>
    <rect x="10" y="10" width="30" height="4" rx="2" fill="rgba(255,255,255,0.6)"/>
    <rect x="10" y="20" width="40" height="6" rx="3" fill="rgba(255,255,255,0.8)"/>
    <rect x="10" y="32" width="20" height="3" rx="1.5" fill="rgba(255,255,255,0.5)"/>
    
    <!-- Card 2 -->
    <rect x="90" y="0" width="80" height="50" rx="8" fill="rgba(255,255,255,0.15)"/>
    <rect x="100" y="10" width="25" height="4" rx="2" fill="rgba(255,255,255,0.6)"/>
    <rect x="100" y="20" width="35" height="6" rx="3" fill="rgba(255,255,255,0.8)"/>
    <rect x="100" y="32" width="15" height="3" rx="1.5" fill="rgba(255,255,255,0.5)"/>
  </g>
  
  <!-- Data flow arrows -->
  <g transform="translate(250, 120)" stroke="rgba(255,255,255,0.6)" stroke-width="2" fill="none">
    <path d="M0 0 L30 -10" stroke-linecap="round"/>
    <path d="M25 -15 L30 -10 L25 -5" stroke-linecap="round"/>
  </g>
  
  <!-- Real-time indicators -->
  <g transform="translate(400, 40)">
    <circle cx="0" cy="0" r="4" fill="rgba(40,167,69,0.8)">
      <animate attributeName="r" values="4;8;4" dur="2s" repeatCount="indefinite"/>
      <animate attributeName="opacity" values="0.8;0.3;0.8" dur="2s" repeatCount="indefinite"/>
    </circle>
  </g>
  
  <!-- Network nodes -->
  <g transform="translate(50, 150)">
    <circle cx="0" cy="0" r="5" fill="rgba(255,255,255,0.8)"/>
    <circle cx="40" cy="-20" r="4" fill="rgba(255,193,7,0.8)"/>
    <circle cx="80" cy="10" r="6" fill="rgba(23,162,184,0.8)"/>
    <line x1="0" y1="0" x2="40" y2="-20" stroke="rgba(255,255,255,0.4)" stroke-width="2"/>
    <line x1="40" y1="-20" x2="80" y2="10" stroke="rgba(255,255,255,0.4)" stroke-width="2"/>
  </g>
  
  <!-- Floating elements -->
  <circle cx="150" cy="30" r="2" fill="rgba(255,255,255,0.6)"/>
  <circle cx="350" cy="25" r="1.5" fill="rgba(255,255,255,0.7)"/>
  <circle cx="550" cy="35" r="2.5" fill="rgba(255,255,255,0.5)"/>
  <circle cx="720" cy="40" r="1" fill="rgba(255,255,255,0.8)"/>
  
  <!-- Bottom wave -->
  <path d="M0 170 Q200 150 400 170 T800 170 V200 H0 Z" fill="rgba(255,255,255,0.1)"/>
</svg>