<!-- File: FlaskVerseHub/app/static/images/banners/home_banner.svg -->
<svg width="800" height="200" viewBox="0 0 800 200" fill="none" xmlns="http://www.w3.org/2000/svg">
  <defs>
    <linearGradient id="homeBannerGradient" x1="0%" y1="0%" x2="100%" y2="50%">
      <stop offset="0%" style="stop-color:#007bff;stop-opacity:0.9" />
      <stop offset="50%" style="stop-color:#0056b3;stop-opacity:0.8" />
      <stop offset="100%" style="stop-color:#004085;stop-opacity:0.7" />
    </linearGradient>
    <pattern id="gridPattern" patternUnits="userSpaceOnUse" width="40" height="40">
      <path d="M 40 0 L 0 0 0 40" fill="none" stroke="rgba(255,255,255,0.1)" stroke-width="1"/>
    </pattern>
  </defs>
  
  <!-- Background -->
  <rect width="800" height="200" fill="url(#homeBannerGradient)"/>
  <rect width="800" height="200" fill="url(#gridPattern)"/>
  
  <!-- Abstract shapes for tech feeling -->
  <circle cx="100" cy="50" r="30" fill="rgba(255,255,255,0.1)"/>
  <circle cx="700" cy="150" r="40" fill="rgba(255,255,255,0.08)"/>
  <rect x="600" y="20" width="60" height="60" rx="10" fill="rgba(255,255,255,0.12)" transform="rotate(15 630 50)"/>
  
  <!-- Flask symbol -->
  <g transform="translate(50, 60)">
    <path d="M20 10C20 10 16 14 16 20V35C16 40.5228 20.4772 45 26 45H16C10.4772 45 6 40.5228 6 35V20C6 14 10 10 10 10" fill="rgba(255,255,255,0.9)"/>
    <circle cx="15" cy="25" r="8" fill="rgba(40,167,69,0.8)"/>
  </g>
  
  <!-- Code symbols -->
  <g transform="translate(150, 80)" fill="rgba(255,255,255,0.6)">
    <text font-family="monospace" font-size="24" font-weight="bold">&lt;/&gt;</text>
  </g>
  
  <!-- API connection nodes -->
  <g transform="translate(300, 50)">
    <circle cx="0" cy="0" r="8" fill="rgba(255,193,7,0.8)"/>
    <circle cx="50" cy="30" r="6" fill="rgba(40,167,69,0.8)"/>
    <circle cx="100" cy="10" r="7" fill="rgba(23,162,184,0.8)"/>
    <line x1="0" y1="0" x2="50" y2="30" stroke="rgba(255,255,255,0.5)" stroke-width="2"/>
    <line x1="50" y1="30" x2="100" y2="10" stroke="rgba(255,255,255,0.5)" stroke-width="2"/>
  </g>
  
  <!-- Dashboard elements -->
  <g transform="translate(500, 70)" fill="rgba(255,255,255,0.7)">
    <rect x="0" y="0" width="60" height="8" rx="4" fill="rgba(255,255,255,0.3)"/>
    <rect x="0" y="15" width="40" height="8" rx="4" fill="rgba(255,255,255,0.5)"/>
    <rect x="0" y="30" width="50" height="8" rx="4" fill="rgba(255,255,255,0.4)"/>
    
    <!-- Chart representation -->
    <rect x="80" y="25" width="4" height="20" fill="rgba(40,167,69,0.8)"/>
    <rect x="88" y="15" width="4" height="30" fill="rgba(23,162,184,0.8)"/>
    <rect x="96" y="20" width="4" height="25" fill="rgba(255,193,7,0.8)"/>
    <rect x="104" y="10" width="4" height="35" fill="rgba(220,53,69,0.8)"/>
  </g>
  
  <!-- Floating particles -->
  <circle cx="200" cy="40" r="2" fill="rgba(255,255,255,0.6)"/>
  <circle cx="450" cy="30" r="1.5" fill="rgba(255,255,255,0.7)"/>
  <circle cx="650" cy="60" r="2.5" fill="rgba(255,255,255,0.5)"/>
  <circle cx="750" cy="100" r="1" fill="rgba(255,255,255,0.8)"/>
  
  <!-- Wave pattern at bottom -->
  <path d="M0 180 Q200 160 400 180 T800 180 V200 H0 Z" fill="rgba(255,255,255,0.1)"/>
</svg>