<!-- File: app/dashboard/static/images/dashboard_banner.svg -->
<svg width="120" height="120" viewBox="0 0 120 120" fill="none" xmlns="http://www.w3.org/2000/svg">
    <rect width="120" height="120" rx="20" fill="url(#gradient)"/>
    
    <!-- Dashboard icon -->
    <g transform="translate(30, 30)">
        <!-- Main dashboard grid -->
        <rect x="5" y="5" width="20" height="15" rx="3" fill="white" opacity="0.9"/>
        <rect x="30" y="5" width="20" height="15" rx="3" fill="white" opacity="0.7"/>
        <rect x="55" y="5" width="20" height="15" rx="3" fill="white" opacity="0.9"/>
        
        <rect x="5" y="25" width="45" height="20" rx="3" fill="white" opacity="0.8"/>
        <rect x="55" y="25" width="20" height="20" rx="3" fill="white" opacity="0.6"/>
        
        <rect x="5" y="50" width="20" height="15" rx="3" fill="white" opacity="0.7"/>
        <rect x="30" y="50" width="45" height="15" rx="3" fill="white" opacity="0.9"/>
        
        <!-- Chart elements -->
        <g transform="translate(10, 35)" opacity="0.4">
            <path d="M0,10 L5,8 L10,12 L15,6 L20,9 L25,4" 
                  stroke="white" 
                  stroke-width="2" 
                  fill="none" 
                  stroke-linecap="round"/>
            <circle cx="0" cy="10" r="2" fill="white"/>
            <circle cx="5" cy="8" r="2" fill="white"/>
            <circle cx="10" cy="12" r="2" fill="white"/>
            <circle cx="15" cy="6" r="2" fill="white"/>
        </g>
    </g>
    
    <!-- Floating elements -->
    <circle cx="85" cy="25" r="3" fill="white" opacity="0.6">
        <animate attributeName="opacity" values="0.6;1;0.6" dur="2s" repeatCount="indefinite"/>
    </circle>
    <circle cx="20" cy="90" r="2" fill="white" opacity="0.5">
        <animate attributeName="opacity" values="0.5;0.9;0.5" dur="3s" repeatCount="indefinite"/>
    </circle>
    <circle cx="95" cy="80" r="2.5" fill="white" opacity="0.7">
        <animate attributeName="opacity" values="0.7;1;0.7" dur="2.5s" repeatCount="indefinite"/>
    </circle>
    
    <defs>
        <linearGradient id="gradient" x1="0%" y1="0%" x2="100%" y2="100%">
            <stop offset="0%" style="stop-color:#4F46E5;stop-opacity:1" />
            <stop offset="50%" style="stop-color:#7C3AED;stop-opacity:1" />
            <stop offset="100%" style="stop-color:#EC4899;stop-opacity:1" />
        </linearGradient>
    </defs>
</svg>